<?xml version="1.0" encoding="utf-8"?>
<!-- Generator: Adobe Illustrator 24.1.1, SVG Export Plug-In . SVG Version: 6.00 Build 0)  -->
<svg version="1.1" id="Calque_1" xmlns="http://www.w3.org/2000/svg" xmlns:xlink="http://www.w3.org/1999/xlink" x="0px" y="0px"
	 viewBox="0 0 432 432" style="enable-background:new 0 0 432 432;" xml:space="preserve">
<style type="text/css">
	.st0{fill:#736357;}
	.st1{fill:#1A1A1A;}
	.st2{fill:#B7535A;}
	.st3{fill:#C69C6D;}
	.st4{fill:#D3B4B6;}
	.st5{fill:#F9C132;}
	.st6{fill:#C79C52;}
	.st7{fill:#A3A57D;}
	.st8{fill:#6B895B;}
	.st9{fill:#CCCCCC;}
	.st10{fill:#937469;}
	.st11{fill:#C74C7F;}
	.st12{fill:#998675;}
	.st13{fill:#8B9B75;}
	.st14{fill:#B2C191;}
	.st15{fill:#534741;}
	.st16{fill:#B3B3B3;}
</style>
<g>
	<g>
		<g>
			<g>
				<path class="st0" d="M88.98,276.411c-0.277-0.763-1.04-1.244-1.85-1.183c-14.21,1.066-25.501,17.852-25.501,38.408
					c0,13.579,4.924,25.513,12.362,32.359c1.097,1.01,2.864,0.357,3.057-1.121c0.171-1.308,0.4-2.608,0.679-3.892
					c3.079-14.272,12.374-26.527,14.041-41.196C92.663,291.924,91.683,283.851,88.98,276.411z"/>
				<path class="st0" d="M96.04,276.309c-1.516-0.539-3.007,0.864-2.551,2.407c0.224,0.758,0.432,1.522,0.623,2.289
					c1.631,6.596,2.017,13.465,1.097,20.198c-1.008,7.355-3.826,14.219-6.786,20.969c-2.918,6.661-5.973,13.317-7.373,20.5
					c-0.371,1.896-0.621,3.83-0.714,5.773c-0.039,0.823,0.421,1.59,1.173,1.925c2.53,1.127,5.217,1.734,8.006,1.734
					c14.877,0,26.936-17.22,26.936-38.468C116.451,295.61,107.766,280.478,96.04,276.309z"/>
			</g>
			<g>
				<path class="st0" d="M340.497,276.411c-0.277-0.763-1.04-1.244-1.85-1.183c-14.21,1.066-25.501,17.852-25.501,38.408
					c0,13.579,4.924,25.513,12.362,32.359c1.097,1.01,2.864,0.357,3.057-1.121c0.171-1.308,0.4-2.608,0.679-3.892
					c3.079-14.272,12.374-26.527,14.041-41.196C344.18,291.924,343.2,283.851,340.497,276.411z"/>
				<path class="st0" d="M347.557,276.309c-1.516-0.539-3.007,0.864-2.551,2.407c0.224,0.758,0.432,1.522,0.623,2.289
					c1.631,6.596,2.017,13.465,1.097,20.198c-1.008,7.355-3.826,14.219-6.786,20.969c-2.918,6.661-5.973,13.317-7.373,20.5
					c-0.371,1.896-0.621,3.83-0.714,5.773c-0.039,0.823,0.421,1.59,1.173,1.925c2.53,1.127,5.217,1.734,8.006,1.734
					c14.877,0,26.936-17.22,26.936-38.468C367.968,295.61,359.283,280.478,347.557,276.309z"/>
			</g>
		</g>
		<g>
			<path class="st1" d="M360.69,174.361c34.529-18.977-7.56-30.823-0.644-14.25c1.081,2.592-2.011,4.604-3.879,2.603
				c-4.369-4.678-1.484-12.473,4.714-14.488c8.951-2.91,20.253,5.146,16.311,15.348c-2.606,6.744-9.12,10.234-14.38,13.315
				c0.167,0.876,4.044,5.502,3.817,13.261c-0.147,5.011-2.497,10.059-6.78,12.574c-10.555,6.197-22.921-9.556-8.794-22.073
				c2.611-2.314,4.144-2.799,4.395-3.485c-8.373-11.208-21.338-3.002-26.14,5.879c-7.841,14.503-2.454,25.82-3.806,26.852
				c-3.532,2.697-6.039-14.555,1.959-28.757C333.747,169.987,347.887,162.287,360.69,174.361z M357.16,180.152
				c-2.717,0.595-10.135,7.238-8.531,13.342c2.525,9.606,13.853,3.255,9.696-10.583C358.039,181.957,357.737,180.999,357.16,180.152
				z"/>
			<path class="st1" d="M104.534,181.141c7.998,14.203,5.492,31.454,1.959,28.757c-1.352-1.032,4.035-12.349-3.806-26.852
				c-4.802-8.881-17.767-17.087-26.14-5.879c0.251,0.686,1.784,1.171,4.395,3.485c14.127,12.517,1.761,28.27-8.794,22.073
				c-4.283-2.514-6.633-7.563-6.78-12.574c-0.228-7.759,3.65-12.385,3.817-13.261c-5.259-3.081-11.774-6.571-14.38-13.315
				c-3.942-10.202,7.36-18.258,16.311-15.348c6.198,2.015,9.083,9.81,4.714,14.488c-1.868,2-4.96-0.011-3.879-2.603
				c6.916-16.573-35.173-4.727-0.644,14.25C84.113,162.287,98.253,169.987,104.534,181.141z M73.674,182.911
				c-4.157,13.838,7.171,20.189,9.696,10.583c1.605-6.104-5.814-12.747-8.531-13.342C74.263,180.999,73.961,181.957,73.674,182.911z
				"/>
		</g>
	</g>
	<g>
		<g>
			<path d="M124.335,178.317c-0.202,0.283-0.342,0.404-0.379,0.55c-0.051,0.201-0.029,0.421-0.028,0.633
				c0.068,9.159,0.137,18.319,0.204,27.478c0.012,1.62,0.067,1.674,1.733,1.685c0.291,0.002,0.587,0,0.872,0.051
				c0.652,0.119,1.074,0.613,1.063,1.201c-0.011,0.584-0.449,1.071-1.092,1.186c-0.207,0.037-0.423,0.035-0.635,0.036
				c-1.912,0.001-3.823,0.002-5.735-0.007c-0.288-0.001-0.588-0.021-0.863-0.101c-0.565-0.163-0.898-0.647-0.873-1.186
				c0.024-0.507,0.368-0.963,0.895-1.091c0.33-0.08,0.682-0.082,1.025-0.096c0.867-0.035,1.087-0.239,1.116-1.086
				c0.012-0.345,0.005-0.69,0.003-1.035c-0.067-10.407-0.134-20.814-0.204-31.221c-0.002-0.344-0.006-0.692-0.058-1.031
				c-0.063-0.414-0.312-0.66-0.758-0.668c-0.318-0.006-0.64-0.001-0.954-0.044c-0.643-0.09-1.074-0.581-1.075-1.182
				c-0.001-0.598,0.437-1.099,1.067-1.2c0.182-0.029,0.371-0.022,0.556-0.021c3.319,0.018,6.637,0.037,9.956,0.058
				c0.212,0.001,0.425,0.013,0.635,0.039c0.596,0.073,0.908,0.462,1.146,0.979c1.111,2.409,2.241,4.809,3.364,7.213
				c2.289,4.904,4.578,9.809,6.867,14.713c0.067,0.144,0.112,0.308,0.211,0.426c0.107,0.127,0.27,0.297,0.401,0.29
				c0.141-0.008,0.309-0.174,0.399-0.314c0.112-0.174,0.158-0.391,0.23-0.591c2.552-7.087,5.105-14.174,7.657-21.261
				c0.287-0.798,0.62-1.06,1.47-1.06c3.425-0.001,6.85,0.009,10.275,0.025c0.26,0.001,0.532,0.042,0.778,0.125
				c0.518,0.175,0.838,0.655,0.818,1.151c-0.02,0.506-0.357,0.989-0.886,1.1c-0.461,0.097-0.947,0.087-1.422,0.097
				c-0.862,0.019-1.078,0.206-1.099,1.069c-0.016,0.663,0.005,1.327,0.008,1.991c0.05,9.77,0.099,19.54,0.15,29.31
				c0.002,0.318,0,0.64,0.049,0.952c0.103,0.658,0.361,0.924,1.023,1.036c0.364,0.061,0.741,0.042,1.11,0.078
				c0.735,0.072,1.23,0.577,1.217,1.225c-0.013,0.655-0.518,1.136-1.253,1.19c-0.132,0.01-0.265,0.006-0.398,0.005
				c-4.354-0.039-8.708-0.078-13.062-0.118c-0.212-0.002-0.426-0.006-0.636-0.033c-0.692-0.088-1.154-0.577-1.148-1.2
				c0.006-0.625,0.47-1.109,1.158-1.203c0.21-0.028,0.426-0.018,0.632-0.061c0.619-0.13,0.855-0.398,0.918-1.025
				c0.019-0.185,0.019-0.371,0.02-0.557c0.053-8.097,0.105-16.195,0.155-24.292c0.001-0.234-0.021-0.468-0.041-0.892
				c-0.253,0.225-0.44,0.322-0.516,0.474c-0.212,0.426-0.399,0.867-0.561,1.315c-3.095,8.583-6.185,17.168-9.278,25.752
				c-0.108,0.299-0.205,0.61-0.369,0.878c-0.478,0.779-1.448,0.845-1.995,0.113c-0.281-0.376-0.473-0.827-0.662-1.264
				c-4.245-9.84-8.484-19.683-12.726-29.526C124.689,179.086,124.555,178.801,124.335,178.317z"/>
			<path d="M225.902,194.02c-0.149,0.413-0.28,0.663-0.325,0.927c-0.049,0.288-0.024,0.59-0.02,0.886
				c0.053,3.794,0.108,7.588,0.162,11.382c0.002,0.108,0.002,0.215,0.008,0.323c0.054,1.039,0.21,1.185,1.264,1.192
				c0.323,0.002,0.65-0.018,0.967,0.026c0.685,0.096,1.155,0.631,1.143,1.253c-0.011,0.595-0.447,1.079-1.109,1.192
				c-0.263,0.045-0.535,0.047-0.804,0.046c-4.602-0.009-9.203-0.022-13.805-0.035c-0.161,0-0.323,0.001-0.484-0.013
				c-0.854-0.071-1.391-0.587-1.351-1.294c0.039-0.685,0.577-1.152,1.38-1.185c0.296-0.012,0.592,0.005,0.888-0.004
				c0.604-0.018,0.757-0.146,0.842-0.739c0.034-0.238,0.029-0.483,0.027-0.724c-0.1-10.172-0.2-20.343-0.309-30.515
				c-0.006-0.535-0.047-1.079-0.161-1.6c-0.213-0.973-0.734-1.4-1.729-1.529c-0.213-0.028-0.432-0.032-0.639-0.085
				c-0.606-0.157-0.987-0.654-0.968-1.228c0.019-0.574,0.436-1.057,1.044-1.169c0.235-0.043,0.482-0.032,0.724-0.03
				c4.817,0.031,9.634,0.064,14.451,0.097c0.188,0.001,0.379,0.001,0.564,0.03c0.688,0.108,1.145,0.625,1.127,1.259
				c-0.018,0.629-0.504,1.11-1.205,1.188c-0.107,0.012-0.215,0.004-0.323,0.009c-1.134,0.045-1.68,0.508-1.818,1.64
				c-0.1,0.826-0.166,1.663-0.16,2.495c0.017,2.556,0.075,5.112,0.119,7.668c0.002,0.134,0.003,0.272,0.031,0.402
				c0.101,0.473,0.486,0.67,0.908,0.43c0.228-0.129,0.42-0.332,0.606-0.523c3.537-3.617,7.073-7.236,10.604-10.859
				c0.273-0.28,0.635-0.519,0.621-1.093c-0.197-0.05-0.411-0.141-0.63-0.154c-0.483-0.029-0.969,0.001-1.452-0.029
				c-0.846-0.052-1.364-0.561-1.359-1.297c0.005-0.735,0.532-1.254,1.383-1.262c3.014-0.03,6.028-0.042,9.042-0.04
				c0.758,0,1.253,0.392,1.388,0.993c0.153,0.684-0.264,1.354-1.011,1.488c-0.524,0.094-1.073,0.111-1.605,0.081
				c-1.046-0.06-1.837,0.322-2.565,1.082c-2.849,2.973-5.743,5.902-8.619,8.848c-0.807,0.827-0.832,1.147-0.159,2.09
				c4.408,6.176,8.816,12.35,13.224,18.525c0.547,0.766,1.077,1.544,1.647,2.292c0.373,0.49,0.811,0.93,1.206,1.404
				c0.354,0.426,0.824,0.583,1.349,0.627c0.241,0.02,0.484,0.017,0.725,0.042c0.754,0.077,1.249,0.548,1.282,1.208
				c0.034,0.682-0.467,1.212-1.256,1.318c-0.186,0.025-0.376,0.028-0.564,0.027c-5.597-0.028-11.195-0.058-16.792-0.087
				c-0.081,0-0.162,0.002-0.242-0.004c-0.804-0.057-1.318-0.53-1.34-1.229c-0.023-0.737,0.488-1.267,1.324-1.333
				c0.428-0.034,0.862,0.008,1.291-0.026c0.423-0.033,0.587-0.248,0.468-0.654c-0.105-0.356-0.26-0.711-0.464-1.021
				c-2.65-4.021-5.312-8.034-7.976-12.045C226.341,194.494,226.171,194.334,225.902,194.02z"/>
			<path d="M307.111,175.303c0.431-0.16,0.444-0.448,0.444-0.743c-0.001-0.445-0.006-0.891,0.001-1.336
				c0.003-0.208,0.003-0.424,0.053-0.624c0.141-0.564,0.649-0.932,1.218-0.912c0.545,0.02,1.009,0.378,1.121,0.927
				c0.067,0.33,0.077,0.676,0.078,1.015c0.008,2.881,0.01,5.762,0.007,8.643c0,0.313-0.001,0.634-0.067,0.937
				c-0.209,0.97-1.245,1.306-2.011,0.67c-0.407-0.337-0.586-0.786-0.668-1.294c-0.233-1.456-0.662-2.86-1.309-4.18
				c-1.413-2.881-3.825-4.351-6.949-4.704c-0.582-0.066-1.214,0.016-1.781,0.176c-1.927,0.545-2.884,2.41-2.274,4.325
				c0.342,1.071,0.968,1.968,1.737,2.77c1.095,1.143,2.361,2.068,3.715,2.878c1.438,0.859,2.887,1.7,4.313,2.579
				c2.018,1.244,3.866,2.699,5.385,4.534c2.55,3.08,3.606,6.625,2.899,10.554c-0.831,4.612-3.767,7.506-8.107,8.952
				c-3.192,1.064-6.458,0.912-9.672-0.031c-2.554-0.749-4.537-2.334-6.148-4.416c-0.144-0.186-0.273-0.387-0.436-0.555
				c-0.078-0.08-0.259-0.163-0.328-0.126c-0.112,0.061-0.21,0.211-0.241,0.341c-0.041,0.174-0.014,0.364-0.012,0.548
				c0.01,0.812,0.027,1.624,0.031,2.436c0.001,0.234,0.001,0.477-0.055,0.702c-0.133,0.533-0.617,0.903-1.145,0.916
				c-0.532,0.013-1.019-0.326-1.175-0.867c-0.078-0.273-0.109-0.567-0.115-0.852c-0.073-3.744-0.139-7.489-0.203-11.234
				c-0.004-0.235-0.006-0.476,0.041-0.704c0.116-0.565,0.589-0.99,1.13-1.052c0.616-0.071,1.136,0.213,1.365,0.822
				c0.146,0.388,0.187,0.813,0.298,1.216c0.366,1.335,0.658,2.698,1.135,3.993c0.681,1.85,1.868,3.388,3.363,4.669
				c1.625,1.391,3.518,2.122,5.661,2.219c3.062,0.139,5.035-2.697,4.722-5.409c-0.228-1.972-0.972-3.734-2.185-5.305
				c-1.419-1.838-3.114-3.393-4.932-4.82c-1.339-1.051-2.724-2.045-4.035-3.128c-1.149-0.949-2.263-1.948-3.319-2.997
				c-1.009-1.003-1.8-2.187-2.276-3.542c-0.855-2.438-0.424-4.754,0.799-6.95c0.657-1.181,1.576-2.157,2.699-2.918
				c2.534-1.72,5.333-2.46,8.396-2.314c2.619,0.125,4.98,0.907,7.036,2.546c0.449,0.358,0.847,0.779,1.271,1.169
				C306.768,174.997,306.956,175.163,307.111,175.303z"/>
			<path d="M280.027,171.062c0.189,0,0.378-0.007,0.566,0c1.077,0.042,1.572,0.528,1.578,1.615c0.013,2.428,0.005,4.856,0.004,7.284
				c0,0.135-0.003,0.271-0.024,0.403c-0.105,0.677-0.64,1.148-1.27,1.125c-0.611-0.023-1.104-0.472-1.193-1.116
				c-0.037-0.266-0.02-0.538-0.032-0.808c-0.026-0.565-0.046-1.131-0.087-1.695c-0.017-0.24-0.07-0.48-0.124-0.716
				c-0.47-2.05-1.622-3.11-3.716-3.369c-0.774-0.096-1.558-0.141-2.339-0.152c-1.564-0.021-3.129-0.007-4.694,0.002
				c-0.786,0.005-1.063,0.275-1.114,1.054c-0.011,0.161-0.005,0.324-0.005,0.485c-0.012,4.262-0.023,8.525-0.035,12.787
				c0,0.162-0.004,0.324,0.001,0.486c0.029,0.924,0.189,1.095,1.088,1.11c1.349,0.022,2.697,0.039,4.046,0.045
				c0.885,0.004,1.007-0.129,1.054-1.032c0.014-0.268,0.009-0.544,0.075-0.801c0.155-0.605,0.666-0.986,1.238-0.969
				c0.546,0.016,1.013,0.38,1.168,0.954c0.062,0.23,0.074,0.479,0.074,0.719c0,1.592-0.006,3.183-0.02,4.775
				c-0.002,0.267-0.024,0.542-0.089,0.8c-0.158,0.629-0.618,0.977-1.223,0.966c-0.621-0.011-1.107-0.434-1.214-1.087
				c-0.052-0.318-0.035-0.647-0.084-0.966c-0.089-0.575-0.206-0.741-0.76-0.763c-1.508-0.059-3.019-0.09-4.528-0.077
				c-0.598,0.005-0.792,0.276-0.837,0.874c-0.01,0.134-0.006,0.27-0.007,0.404c-0.028,4.559-0.056,9.118-0.083,13.677
				c-0.001,0.216-0.015,0.433,0.007,0.647c0.058,0.542,0.277,0.774,0.821,0.815c0.537,0.041,1.078,0.04,1.618,0.047
				c1.753,0.021,3.507,0.04,5.26,0.053c2.495,0.017,3.566-0.786,4.099-3.21c0.236-1.073,0.307-2.183,0.439-3.277
				c0.039-0.32,0.007-0.65,0.052-0.969c0.102-0.719,0.578-1.167,1.217-1.185c0.67-0.019,1.182,0.446,1.3,1.191
				c0.025,0.159,0.022,0.323,0.022,0.484c0.008,2.563,0.021,5.126,0.014,7.688c-0.001,0.343-0.06,0.703-0.176,1.024
				c-0.177,0.489-0.554,0.789-1.092,0.835c-0.241,0.021-0.485,0.031-0.727,0.028c-7.903-0.09-15.807-0.18-23.71-0.278
				c-0.374-0.005-0.76-0.024-1.119-0.117c-0.658-0.17-1.039-0.7-1.002-1.294c0.039-0.636,0.512-1.098,1.224-1.174
				c0.267-0.029,0.54-0.005,0.808-0.029c0.738-0.065,1.066-0.371,1.148-1.111c0.041-0.374,0.025-0.754,0.028-1.132
				c0.072-8.767,0.252-28.944,0.269-30.266c0.004-0.27,0.016-0.54-0.002-0.809c-0.066-0.962-0.322-1.234-1.271-1.33
				c-0.402-0.041-0.809-0.024-1.211-0.066c-0.76-0.079-1.217-0.571-1.203-1.262c0.014-0.685,0.487-1.151,1.254-1.217
				c0.268-0.023,0.539-0.019,0.809-0.019C260.253,171.144,276.061,171.062,280.027,171.062z"/>
			<path d="M207.434,208.485c-0.323-0.031-0.654-0.039-0.976-0.005c-0.721,0.075-1.136-0.215-1.447-0.886
				c-4.892-10.563-9.806-21.115-14.715-31.67c-0.618-1.328-1.242-2.654-1.857-3.984c-0.255-0.552-0.677-0.832-1.282-0.831
				c-0.613,0.002-1.018,0.321-1.266,0.861c-0.09,0.197-0.171,0.399-0.249,0.601c-3.165,8.173-6.329,16.346-9.494,24.518
				c-1.284,3.315-2.569,6.629-3.857,9.942c-0.557,1.434-0.689,1.52-2.197,1.535c-0.27,0.003-0.548,0.008-0.808,0.07
				c-0.551,0.132-0.932,0.638-0.937,1.187c-0.006,0.582,0.405,1.11,0.981,1.242c0.157,0.036,0.324,0.038,0.486,0.04
				c2.417,0.03,4.834,0.062,7.251,0.081c0.294,0.002,0.604-0.026,0.88-0.119c0.506-0.17,0.797-0.549,0.83-1.095
				c0.033-0.544-0.25-1.014-0.779-1.212c-0.246-0.092-0.527-0.118-0.793-0.127c-0.624-0.021-1.25,0.001-1.874-0.022
				c-0.639-0.023-0.77-0.215-0.55-0.825c0.276-0.765,0.584-1.52,0.878-2.279c1.058-2.733,2.11-5.468,3.178-8.197
				c0.438-1.12,0.683-1.272,1.873-1.272c2.254-0.001,4.509,0.041,6.762-0.02c0.899-0.024,1.388,0.292,1.759,1.095
				c1.559,3.375,3.168,6.727,4.758,10.087c0.07,0.147,0.15,0.292,0.199,0.446c0.191,0.601-0.041,0.939-0.67,0.986
				c-0.297,0.022-0.603,0-0.889,0.067c-0.618,0.145-0.996,0.641-0.992,1.23c0.004,0.589,0.388,1.071,1.012,1.207
				c0.287,0.063,0.592,0.061,0.889,0.062c2.2,0.005,10.998-0.151,13.198-0.155c0.271,0,0.547-0.002,0.811-0.053
				c0.718-0.139,1.127-0.64,1.098-1.301C208.616,209.041,208.14,208.553,207.434,208.485z M186.337,193.455
				c-1.624,0.012-3.249,0.012-4.874-0.005c-0.771-0.008-0.958-0.277-0.719-1.031c0.172-0.54,0.402-1.062,0.607-1.592
				c0.586-1.514,1.169-3.028,1.762-4.539c0.104-0.265,0.249-0.514,0.448-0.919c0.205,0.34,0.342,0.529,0.44,0.736
				c1.001,2.1,2,4.201,2.99,6.306C187.361,193.194,187.205,193.448,186.337,193.455z"/>
		</g>
		<g>
			<path d="M283.157,246.578c-0.066,1.785-0.121,4.405-0.276,7.02c-0.074,1.257-0.322,2.506-0.522,3.754
				c-0.057,0.358-0.197,0.705-0.321,1.051c-0.641,1.794-2.164,3.126-4.031,3.501c-1.905,0.383-3.761,0.263-5.603-0.305
				c-1.13-0.348-1.819-1.056-1.911-2.269c-0.034-0.45-0.06-0.901-0.079-1.352c-0.042-1.016-0.069-2.032-0.122-3.048
				c-0.016-0.313-0.077-0.628-0.156-0.932c-0.096-0.367-0.331-0.643-0.684-0.794c-0.724-0.311-1.456-0.252-2.185-0.02
				c-0.298,0.095-0.416,0.348-0.442,0.628c-0.041,0.449-0.042,0.902-0.074,1.352c-0.078,1.08-0.154,2.161-0.254,3.24
				c-0.027,0.288-0.126,0.573-0.214,0.852c-0.467,1.477-1.49,2.247-3.019,2.424c-1.092,0.127-2.166,0.074-3.232-0.164
				c-1.479-0.329-2.503-1.203-3.04-2.625c-0.553-1.467-0.834-3.001-1.073-4.541c-0.596-3.842-0.99-7.709-1.245-11.585
				c-0.199-3.02-0.278-6.048-0.382-9.073c-0.044-1.268,0.088-2.528,0.385-3.765c0.069-0.285,0.156-0.569,0.265-0.841
				c0.3-0.749,0.95-1.302,1.739-1.473c0.524-0.113,1.057-0.218,1.589-0.234c1.694-0.053,3.393-0.063,5.071,0.222
				c0.663,0.113,1.309,0.332,1.956,0.528c0.993,0.301,1.504,1.046,1.719,2.005c0.108,0.481,0.151,0.984,0.157,1.478
				c0.019,1.74,0.002,3.48,0.017,5.221c0.004,0.449,0.039,0.906,0.128,1.346c0.162,0.801,0.688,1.248,1.441,1.296
				c0.751,0.047,1.326-0.336,1.574-1.122c0.127-0.404,0.209-0.838,0.222-1.26c0.038-1.265,0.024-2.531,0.047-3.796
				c0.015-0.858,0.025-1.718,0.097-2.572c0.133-1.582,0.923-2.457,2.46-2.831c1.343-0.326,2.694-0.221,4.044-0.09
				c0.449,0.044,0.892,0.138,1.34,0.2c1.285,0.179,2.125,0.936,2.648,2.074c0.197,0.428,0.351,0.883,0.469,1.34
				c0.724,2.81,1.134,5.668,1.25,8.567C282.984,241.901,283.053,243.82,283.157,246.578z"/>
			<path d="M331.45,240.524c-0.228,4.378-0.362,7.713-0.588,11.041c-0.155,2.278-0.426,4.549-0.677,6.82
				c-0.053,0.48-0.226,0.951-0.376,1.416c-0.494,1.535-1.584,2.394-3.151,2.613c-1.98,0.278-3.908,0.02-5.763-0.732
				c-1.355-0.549-2.379-1.482-3-2.799c-0.437-0.925-0.786-1.893-1.147-2.852c-0.574-1.527-1.114-3.067-1.693-4.593
				c-0.13-0.343-0.338-0.665-0.558-0.961c-0.093-0.125-0.333-0.241-0.466-0.206c-0.134,0.035-0.286,0.252-0.309,0.408
				c-0.084,0.576-0.146,1.159-0.163,1.74c-0.035,1.166,0.012,2.336-0.062,3.499c-0.066,1.043-0.15,2.103-0.402,3.112
				c-0.519,2.078-1.545,2.849-3.683,2.955c-1.127,0.056-2.232-0.086-3.324-0.371c-1.297-0.338-2.164-1.133-2.658-2.367
				c-0.516-1.288-0.765-2.64-0.962-4.003c-0.709-4.895-0.679-9.814-0.473-14.739c0.105-2.497,0.317-4.982,0.755-7.443
				c0.212-1.193,0.454-2.378,0.993-3.485c0.721-1.481,1.831-2.379,3.502-2.534c1.73-0.161,3.445-0.149,5.137,0.322
				c1.427,0.398,2.553,1.176,3.138,2.561c0.77,1.824,1.498,3.667,2.194,5.521c0.467,1.243,0.843,2.521,1.271,3.779
				c0.127,0.374,0.27,0.748,0.449,1.099c0.136,0.266,0.31,0.529,0.523,0.736c0.591,0.577,1.239,0.387,1.359-0.429
				c0.084-0.57,0.065-1.165,0.023-1.744c-0.134-1.838-0.308-3.672-0.452-5.509c-0.077-0.98-0.065-1.958,0.175-2.921
				c0.455-1.824,1.52-2.737,3.399-2.87c1.494-0.106,2.924,0.173,4.293,0.779c0.592,0.262,1.065,0.657,1.424,1.199
				c0.809,1.22,1.23,2.58,1.258,4.022C331.487,236.249,331.45,238.909,331.45,240.524z"/>
			<path d="M160.357,236.505c0.047-0.974,0.09-2.422,0.195-3.865c0.079-1.085,0.466-2.075,1.099-2.97
				c0.763-1.08,1.799-1.788,3.072-2.041c1.369-0.272,2.762-0.51,4.152-0.569c3.35-0.143,6.7-0.018,10.012,0.552
				c1.328,0.229,2.648,0.553,3.938,0.946c3.701,1.127,5.605,3.797,6.227,7.492c0.298,1.772,0.301,3.541-0.241,5.287
				c-0.745,2.399-2.21,4.23-4.325,5.545c-0.622,0.387-1.288,0.715-1.96,1.01c-1.025,0.45-0.882,1.446-0.298,1.958
				c0.3,0.263,0.634,0.517,0.996,0.674c0.891,0.385,1.811,0.705,2.714,1.064c0.946,0.377,1.907,0.727,2.823,1.167
				c0.77,0.37,1.165,1.054,1.088,1.92c-0.044,0.491-0.148,0.994-0.328,1.451c-0.673,1.708-1.524,3.337-2.642,4.788
				c-1.127,1.462-2.861,2.164-4.766,0.884c-1.964-1.32-3.707-2.89-5.204-4.724c-0.555-0.68-1.077-1.389-1.613-2.085
				c-0.13-0.169-0.547-0.966-0.948-0.878c-0.347-0.013-0.366,0.41-0.381,0.626c-0.065,0.943-0.085,1.891-0.085,2.837
				c0,0.592,0.102,1.185,0.091,1.777c-0.029,1.523-0.638,2.283-2.115,2.603c-1.779,0.385-3.579,0.455-5.379,0.155
				c-1.297-0.216-2.301-0.903-2.882-2.092c-0.32-0.655-0.57-1.356-0.76-2.061c-0.614-2.273-0.915-4.606-1.279-6.927
				C160.829,246.374,160.706,241.67,160.357,236.505z M172.42,238.841c0.039,0.356,0.059,0.713,0.121,1.061
				c0.223,1.242,0.921,1.736,2.171,1.556c0.094-0.014,0.19-0.016,0.282-0.036c0.937-0.198,1.839-0.478,2.55-1.164
				c0.785-0.756,0.919-1.657,0.339-2.574c-0.726-1.147-1.823-1.616-3.149-1.564c-1.353,0.053-2.074,0.739-2.244,2.085
				C172.463,238.417,172.443,238.629,172.42,238.841z"/>
			<path d="M67.825,239.004c0.066-1.539,0.114-3.18,0.217-4.819c0.036-0.572,0.169-1.146,0.325-1.7
				c0.522-1.854,1.678-3.157,3.46-3.909c1.813-0.765,3.72-1.102,5.665-1.254c3.735-0.293,7.446-0.061,11.136,0.557
				c1.164,0.195,2.312,0.454,3.396,0.953c1.615,0.742,2.512,2,2.718,3.746c0.201,1.705,0.303,3.417-0.025,5.117
				c-0.104,0.54-0.278,1.076-0.496,1.581c-0.335,0.774-0.954,1.283-1.794,1.367c-0.939,0.095-1.893,0.14-2.834,0.087
				c-1.616-0.091-3.226-0.292-4.842-0.414c-0.713-0.054-1.437-0.084-2.148-0.025c-0.945,0.078-1.417,0.767-1.261,1.702
				c0.096,0.573,0.387,0.873,0.975,0.886c0.576,0.013,1.155-0.045,1.732-0.074c0.693-0.035,1.385-0.093,2.077-0.102
				c0.691-0.008,1.118,0.385,1.333,1.017c0.356,1.049,0.449,2.129,0.29,3.221c-0.136,0.934-0.603,1.427-1.535,1.515
				c-0.988,0.093-1.986,0.077-2.979,0.117c-0.275,0.011-0.56,0.016-0.82,0.092c-0.386,0.113-0.505,0.341-0.473,0.74
				c0.05,0.623,0.528,1.096,1.218,1.091c0.668-0.005,1.336-0.105,2.004-0.164c1.821-0.16,3.639-0.344,5.462-0.469
				c0.664-0.045,1.343,0.012,2.007,0.089c1.778,0.205,2.907,1.277,3.217,3.026c0.271,1.526,0.206,3.045-0.177,4.544
				c-0.397,1.554-1.314,2.665-2.821,3.295c-1.276,0.533-2.615,0.792-3.97,0.938c-2,0.215-4.006,0.416-6.015,0.493
				c-2.571,0.099-5.136-0.064-7.662-0.607c-0.449-0.097-0.886-0.263-1.32-0.42c-1.186-0.428-2.047-1.226-2.651-2.326
				c-0.697-1.269-1.151-2.626-1.479-4.027c-0.692-2.955-1.166-5.948-1.428-8.971C68.132,243.64,67.995,241.376,67.825,239.004z"/>
			<path d="M129.981,239.004c0.066-1.539,0.114-3.18,0.217-4.819c0.036-0.572,0.169-1.146,0.325-1.7
				c0.522-1.854,1.678-3.157,3.46-3.909c1.813-0.765,3.72-1.102,5.665-1.254c3.735-0.293,7.446-0.061,11.136,0.557
				c1.164,0.195,2.312,0.454,3.396,0.953c1.615,0.742,2.512,2,2.718,3.746c0.201,1.705,0.303,3.417-0.025,5.117
				c-0.104,0.54-0.278,1.076-0.496,1.581c-0.335,0.774-0.954,1.283-1.794,1.367c-0.939,0.095-1.893,0.14-2.834,0.087
				c-1.616-0.091-3.226-0.292-4.842-0.414c-0.713-0.054-1.437-0.084-2.148-0.025c-0.945,0.078-1.417,0.767-1.261,1.702
				c0.096,0.573,0.387,0.873,0.975,0.886c0.576,0.013,1.155-0.045,1.732-0.074c0.693-0.035,1.385-0.093,2.077-0.102
				c0.691-0.008,1.118,0.385,1.333,1.017c0.356,1.049,0.449,2.129,0.29,3.221c-0.136,0.934-0.603,1.427-1.535,1.515
				c-0.988,0.093-1.986,0.077-2.979,0.117c-0.275,0.011-0.56,0.016-0.82,0.092c-0.386,0.113-0.505,0.341-0.473,0.74
				c0.05,0.623,0.528,1.096,1.218,1.091c0.668-0.005,1.336-0.105,2.004-0.164c1.821-0.16,3.639-0.344,5.462-0.469
				c0.664-0.045,1.343,0.012,2.007,0.089c1.778,0.205,2.907,1.277,3.217,3.026c0.271,1.526,0.206,3.045-0.177,4.544
				c-0.397,1.554-1.314,2.665-2.821,3.295c-1.276,0.533-2.615,0.792-3.97,0.938c-2,0.215-4.006,0.416-6.015,0.493
				c-2.571,0.099-5.136-0.064-7.662-0.607c-0.449-0.097-0.886-0.263-1.32-0.42c-1.186-0.428-2.047-1.226-2.651-2.326
				c-0.697-1.269-1.151-2.626-1.479-4.027c-0.692-2.955-1.166-5.948-1.428-8.971C130.287,243.64,130.151,241.376,129.981,239.004z"
				/>
			<path d="M334.555,246.42c0.039-3.079,0.574-6.06,1.647-8.938c1.006-2.698,2.546-5.04,4.758-6.913
				c1.95-1.651,4.194-2.68,6.702-3.13c2.861-0.513,5.72-0.584,8.557,0.153c1.924,0.5,3.716,1.31,5.379,2.397
				c0.317,0.207,0.617,0.445,0.909,0.687c1.229,1.015,1.655,2.339,1.451,3.886c-0.296,2.246-1.085,4.324-2.202,6.283
				c-0.463,0.811-1.066,1.515-1.779,2.122c-0.8,0.68-1.706,0.951-2.718,0.605c-0.897-0.307-1.768-0.69-2.656-1.022
				c-0.932-0.349-1.849-0.773-2.812-0.997c-3.36-0.781-6.148,1.316-6.423,4.937c-0.036,0.479,0.079,1.002,0.249,1.46
				c0.72,1.947,2.976,3.174,5.015,2.775c0.81-0.159,1.119-0.62,0.966-1.439c-0.056-0.303-0.126-0.605-0.162-0.911
				c-0.164-1.415,0.788-2.274,1.748-2.503c0.597-0.143,1.217-0.231,1.831-0.257c1.163-0.049,2.329-0.054,3.493-0.04
				c0.423,0.005,0.856,0.077,1.264,0.192c1.319,0.371,2.246,1.166,2.705,2.5c0.377,1.097,0.473,2.226,0.533,3.367
				c0.04,0.759,0.084,1.519,0.117,2.278c0.068,1.548,0.007,3.093-0.251,4.62c-0.301,1.784-1.279,2.779-3.039,3.155
				c-1.073,0.229-2.157,0.345-3.258,0.284c-0.819-0.046-1.471-0.334-1.831-1.124c-0.467-1.026-1.373-1.266-2.462-0.823
				c-0.433,0.176-0.828,0.463-1.21,0.741c-0.955,0.693-1.996,1.198-3.139,1.48c-1.426,0.352-2.822,0.147-4.225-0.2
				c-3.079-0.761-5.138-2.763-6.669-5.409c-1.282-2.216-1.921-4.647-2.257-7.161C334.651,248.464,334.629,247.439,334.555,246.42z"
				/>
			<path d="M112.122,262.362c-2.175,0.092-3.869-0.774-5.117-2.557c-1.561-2.23-2.76-4.649-3.784-7.161
				c-2.325-5.703-4.114-11.564-5.159-17.641c-0.195-1.132-0.435-2.265-0.232-3.432c0.239-1.376,0.947-2.43,2.223-2.981
				c2.086-0.901,4.264-1.488,6.56-1.486c1.612,0.001,2.319,0.491,2.812,2.044c0.654,2.061,1.243,4.144,1.847,6.221
				c0.427,1.467,0.825,2.943,1.253,4.41c0.105,0.359,0.245,0.715,0.422,1.044c0.396,0.736,0.937,0.758,1.386,0.042
				c0.248-0.395,0.449-0.83,0.604-1.271c0.63-1.798,1.228-3.606,1.85-5.407c0.415-1.2,0.851-2.393,1.278-3.588
				c0.048-0.133,0.103-0.263,0.158-0.393c0.808-1.926,1.874-2.658,4.254-2.382c1.056,0.123,2.048,0.511,2.992,1.013
				c0.838,0.446,1.363,1.111,1.615,2.033c0.377,1.376,0.301,2.755,0.075,4.131c-0.505,3.073-1.39,6.048-2.387,8.991
				c-1.635,4.826-3.8,9.418-6.217,13.895c-0.379,0.702-0.846,1.356-1.282,2.027c-1.061,1.631-2.59,2.406-4.514,2.447
				C112.546,262.366,112.334,262.362,112.122,262.362z"/>
			<path d="M204.19,262.025c-0.322-0.046-0.636-0.175-0.943-0.292c-1.222-0.467-1.888-1.348-1.99-2.663
				c-0.13-1.67-0.253-3.341-0.428-5.007c-0.135-1.289-0.284-2.582-0.534-3.851c-0.388-1.97-1.319-3.657-2.804-5.048
				c-1.049-0.981-2.067-2.004-3.012-3.084c-1.091-1.247-1.732-2.746-2.054-4.371c-0.482-2.432-0.496-4.874-0.102-7.319
				c0.03-0.185,0.081-0.368,0.135-0.549c0.507-1.691,1.433-2.43,3.19-2.437c1.084-0.004,2.17,0.069,3.251,0.161
				c0.844,0.072,1.688,0.189,2.52,0.35c1.321,0.255,2.06,1.122,2.163,2.36c0.123,1.481,0.22,2.965,0.383,4.442
				c0.145,1.31,0.312,2.624,0.575,3.914c0.139,0.679,0.453,1.34,0.785,1.956c0.318,0.59,0.812,1.041,1.531,1.147
				c0.857,0.126,1.446-0.154,1.749-0.964c0.212-0.568,0.347-1.178,0.419-1.781c0.103-0.865,0.123-1.741,0.17-2.612
				c0.097-1.79,0.165-3.583,0.297-5.37c0.044-0.603,0.196-1.211,0.389-1.786c0.306-0.913,0.986-1.474,1.903-1.746
				c1.5-0.444,3.026-0.453,4.556-0.221c0.534,0.081,1.064,0.212,1.582,0.363c1.36,0.397,2.245,1.305,2.571,2.669
				c0.224,0.935,0.379,1.902,0.424,2.861c0.111,2.395-0.237,4.752-0.742,7.089c-0.461,2.131-1.72,3.746-3.306,5.147
				c-0.53,0.468-1.083,0.915-1.653,1.333c-1.846,1.353-2.714,3.243-2.892,5.448c-0.15,1.855-0.151,3.723-0.216,5.585
				c-0.028,0.801-0.032,1.604-0.083,2.404c-0.073,1.141-0.532,1.714-1.65,2.001c-0.521,0.133-1.07,0.167-1.608,0.214
				C208.413,262.398,205.356,262.19,204.19,262.025z"/>
			<path d="M234.591,227.305c2.845,0.194,6.183,0.4,9.517,0.658c1.466,0.114,2.938,0.24,4.361,0.665
				c0.179,0.053,0.36,0.102,0.537,0.16c1.458,0.475,2.28,1.478,2.498,2.993c0.239,1.662,0.174,3.316-0.151,4.955
				c-0.094,0.475-0.267,0.95-0.493,1.379c-0.572,1.085-1.483,1.666-2.733,1.615c-0.911-0.037-1.819-0.137-2.73-0.171
				c-1.983-0.073-2.233,0.261-2.564,2.15c-0.431,2.457-0.313,4.941-0.228,7.421c0.083,2.431,0.18,4.863,0.2,7.295
				c0.008,0.951-0.118,1.914-0.294,2.851c-0.105,0.558-0.393,1.093-0.658,1.608c-0.394,0.764-1.083,1.172-1.91,1.271
				c-1.093,0.13-2.192,0.13-3.282-0.091c-1.222-0.248-2.055-0.914-2.254-2.18c-0.181-1.152-0.344-2.313-0.396-3.476
				c-0.071-1.588-0.017-3.181-0.04-4.772c-0.038-2.574-0.15-5.144-0.554-7.691c-0.084-0.53-0.188-1.062-0.348-1.573
				c-0.423-1.359-1.301-2.274-2.741-2.502c-0.921-0.146-1.861-0.164-2.788-0.276c-0.53-0.064-1.066-0.155-1.574-0.314
				c-1.144-0.359-1.833-1.169-2.11-2.327c-0.269-1.124-0.332-2.273-0.253-3.417c0.084-1.21,0.189-2.428,0.415-3.618
				c0.352-1.857,0.975-2.385,2.853-2.616c0.509-0.063,1.027-0.074,1.541-0.07C230.306,227.245,232.201,227.275,234.591,227.305z"/>
			<path d="M298.768,256.569c-0.032,0.987-0.187,1.977-0.378,2.949c-0.276,1.411-1.194,2.261-2.586,2.541
				c-1.978,0.398-3.958,0.305-5.912-0.173c-1.257-0.308-2.072-1.142-2.536-2.335c-0.422-1.083-0.624-2.217-0.752-3.362
				c-0.294-2.631-0.396-5.274-0.339-7.918c0.083-3.908,0.188-7.816,0.349-11.721c0.092-2.233,0.282-4.464,0.772-6.655
				c0.049-0.22,0.091-0.444,0.162-0.657c0.361-1.096,1.039-1.835,2.247-1.97c1.653-0.186,3.297-0.137,4.907,0.298
				c1.459,0.394,2.381,1.372,2.708,2.836c0.211,0.944,0.338,1.913,0.419,2.878c0.124,1.485,0.18,2.977,0.259,4.465
				C298.313,241.986,298.827,254.718,298.768,256.569z"/>
		</g>
		<g>
			<path d="M143.068,324.705c0.36,0.113,0.729,0.204,1.079,0.343c1.55,0.616,3.181,1.091,4.622,1.903
				c2.933,1.651,4.786,4.183,5.317,7.56c0.434,2.76-0.32,5.253-1.95,7.476c-1.365,1.862-3.197,3.165-5.274,4.14
				c-2.894,1.359-5.969,2.021-9.13,2.247c-2.367,0.169-4.747,0.171-7.121,0.241c-0.311,0.009-0.624-0.004-0.933-0.033
				c-1.974-0.189-3.031-1.26-3.18-3.224c-0.021-0.271-0.011-0.545-0.013-0.818c-0.089-19.512-0.176-39.025-0.266-58.537
				c-0.005-1.012-0.039-2.025-0.043-3.037c-0.009-1.984,1.021-3.334,2.972-3.769c5.16-1.151,9.993-0.253,14.441,2.546
				c5.186,3.263,8.446,8.009,10.041,13.856c2.133,7.817,1.067,15.201-3.461,21.991c-1.64,2.459-3.757,4.459-6.26,6.043
				c-0.334,0.211-0.631,0.482-0.945,0.726C142.999,324.474,143.034,324.59,143.068,324.705z M132.441,318.635
				c0.007,1.777,0.329,2.037,2.079,1.91c0.194-0.014,0.388-0.034,0.581-0.058c3.731-0.473,6.764-2.225,9.161-5.083
				c5.643-6.726,5.84-17.401,0.47-24.527c-1.922-2.551-4.324-4.487-7.399-5.442c-1.137-0.353-2.351-0.512-3.542-0.62
				c-1.014-0.092-1.314,0.228-1.454,1.243c-0.069,0.498-0.061,1.009-0.062,1.515C132.271,292.632,132.421,313.341,132.441,318.635z
				 M132.522,336.799c0.001,0,0.002,0,0.002,0c0,1.438-0.018,2.877,0.006,4.315c0.019,1.151,0.247,1.421,1.356,1.41
				c3.119-0.033,6.21-0.308,9.181-1.358c1.329-0.47,2.573-1.094,3.603-2.086c2.161-2.083,1.964-4.989-0.539-6.664
				c-0.857-0.574-1.855-0.976-2.839-1.311c-2.643-0.9-5.404-1.038-8.169-1.095c-2.191-0.045-2.428,0.296-2.582,2.477
				C132.44,333.917,132.522,335.361,132.522,336.799z"/>
			<path d="M160.032,313.498c0-10.27,0.047-20.541-0.031-30.811c-0.022-2.884,1.408-4.352,4.262-4.26
				c4.773,0.154,9.552,0.149,14.329,0.213c0.358,0.005,0.72,0.003,1.073,0.052c1.504,0.211,2.614,1.437,2.667,2.918
				c0.051,1.449-0.895,2.714-2.351,3.046c-0.536,0.122-1.105,0.141-1.658,0.136c-3.304-0.031-6.607-0.084-9.911-0.128
				c-0.318-0.004-0.638-0.018-0.955,0.007c-0.843,0.065-1.124,0.33-1.217,1.17c-0.039,0.354-0.022,0.716-0.022,1.074
				c-0.005,11.186-0.01,22.372-0.013,33.558c-0.001,2.311,0.167,2.48,2.512,2.519c2.07,0.034,4.14,0.049,6.209,0.096
				c0.471,0.011,0.96,0.055,1.406,0.197c1.354,0.43,2.146,1.594,2.103,2.986c-0.042,1.357-0.958,2.5-2.322,2.825
				c-0.459,0.109-0.945,0.139-1.419,0.138c-1.831-0.006-3.662-0.04-5.493-0.064c-0.398-0.005-0.797-0.024-1.194-0.01
				c-1.431,0.047-1.782,0.353-1.793,1.78c-0.026,3.344-0.023,6.688,0.009,10.031c0.015,1.549,0.262,1.754,1.86,1.754
				c3.224,0,6.449-0.029,9.673-0.016c0.588,0.002,1.202,0.064,1.758,0.243c1.275,0.411,2.049,1.607,2.005,2.937
				c-0.042,1.271-0.862,2.385-2.101,2.752c-0.488,0.145-1.016,0.213-1.527,0.216c-4.777,0.029-9.554,0.049-14.331,0.043
				c-2.049-0.002-3.174-1.016-3.428-3.046c-0.084-0.668-0.094-1.349-0.094-2.024C160.031,333.72,160.032,323.609,160.032,313.498z"
				/>
			<path d="M251.347,313.498c0-10.27,0.047-20.541-0.031-30.811c-0.022-2.884,1.408-4.352,4.262-4.26
				c4.773,0.154,9.552,0.149,14.328,0.213c0.358,0.005,0.72,0.003,1.073,0.052c1.504,0.211,2.614,1.437,2.667,2.918
				c0.051,1.449-0.895,2.714-2.352,3.046c-0.536,0.122-1.105,0.141-1.658,0.136c-3.304-0.031-6.607-0.084-9.911-0.128
				c-0.318-0.004-0.638-0.018-0.955,0.007c-0.843,0.065-1.124,0.33-1.217,1.17c-0.039,0.354-0.022,0.716-0.022,1.074
				c-0.005,11.186-0.01,22.372-0.013,33.558c-0.001,2.311,0.167,2.48,2.512,2.519c2.07,0.034,4.14,0.049,6.209,0.096
				c0.471,0.011,0.96,0.055,1.406,0.197c1.354,0.43,2.146,1.594,2.103,2.986c-0.042,1.357-0.958,2.5-2.322,2.825
				c-0.459,0.109-0.945,0.139-1.419,0.138c-1.831-0.006-3.662-0.04-5.493-0.064c-0.398-0.005-0.797-0.024-1.194-0.01
				c-1.431,0.047-1.782,0.353-1.793,1.78c-0.026,3.344-0.023,6.688,0.009,10.031c0.015,1.549,0.262,1.754,1.86,1.754
				c3.224,0,6.449-0.029,9.673-0.016c0.588,0.002,1.202,0.064,1.758,0.243c1.275,0.411,2.048,1.607,2.005,2.937
				c-0.042,1.271-0.862,2.385-2.101,2.752c-0.488,0.145-1.016,0.213-1.527,0.216c-4.777,0.029-9.554,0.049-14.331,0.043
				c-2.049-0.002-3.174-1.016-3.428-3.046c-0.084-0.668-0.094-1.349-0.094-2.024C251.345,333.72,251.347,323.609,251.347,313.498z"
				/>
			<path d="M278.656,282.248c0-0.279-0.005-0.558,0.008-0.836c0.079-1.675,0.907-2.721,2.561-2.942
				c8.413-1.123,15.119,1.517,19.096,9.86c1.418,2.976,2.039,6.184,2.485,9.422c0.501,3.633,0.729,7.285,0.501,10.952
				c-0.23,3.701-0.753,7.353-1.845,10.913c-0.934,3.042-2.537,5.551-5.4,7.132c-0.701,0.387-0.938,0.974-0.518,1.591
				c2.132,3.128,2.329,6.795,3.001,10.335c0.163,0.857,0.378,1.707,0.616,2.547c0.347,1.224,1.194,1.944,2.421,2.212
				c0.503,0.11,1.02,0.157,1.53,0.236c1.543,0.237,2.611,1.427,2.542,2.831c-0.073,1.481-1.27,2.625-2.883,2.6
				c-4.355-0.068-7.748-2.452-8.769-6.087c-0.611-2.174-0.944-4.425-1.414-6.639c-0.223-1.049-0.409-2.112-0.727-3.133
				c-0.646-2.074-2.098-3.226-4.266-3.432c-0.631-0.06-1.274-0.097-1.905-0.051c-1.17,0.086-1.45,0.399-1.452,1.573
				c-0.005,3.064,0.01,6.128,0.016,9.193c0.003,1.87,0.013,3.741,0.003,5.611c-0.007,1.215-0.504,2.171-1.633,2.696
				c-1.456,0.677-3.191-0.099-3.632-1.662c-0.18-0.638-0.211-1.335-0.212-2.005C278.768,334.659,278.656,292.715,278.656,282.248z
				 M298.038,305.851c-0.246-2.648-0.426-5.305-0.757-7.943c-0.328-2.607-0.924-5.163-2.063-7.559
				c-0.976-2.054-2.373-3.746-4.26-5.037c-1.607-1.099-3.416-1.47-5.308-1.518c-0.943-0.024-1.382,0.423-1.462,1.36
				c-0.044,0.514-0.04,1.033-0.039,1.55c0.019,11.371,0.041,22.743,0.064,34.114c0.001,0.437-0.008,0.878,0.044,1.31
				c0.135,1.109,0.516,1.506,1.635,1.422c1.62-0.121,3.25-0.272,4.841-0.587c3.006-0.594,4.963-2.372,5.639-5.431
				c0.017-0.078,0.034-0.155,0.055-0.232C297.459,313.558,297.892,309.74,298.038,305.851z"/>
			<path d="M196.767,287.468c-0.001-0.638-0.053-1.28-0.137-1.913c-0.155-1.165-0.461-1.459-1.623-1.478
				c-1.801-0.028-3.603,0.013-5.404-0.016c-0.593-0.01-1.217-0.051-1.768-0.246c-1.863-0.657-2.398-3.06-0.957-4.397
				c0.439-0.407,1.099-0.6,1.685-0.815c0.285-0.104,0.634-0.041,0.954-0.041c6.885-0.016,13.77-0.032,20.655-0.043
				c0.48-0.001,0.964-0.003,1.438,0.059c1.358,0.178,2.368,1.262,2.432,2.568c0.063,1.301-0.841,2.46-2.204,2.758
				c-0.464,0.102-0.951,0.125-1.429,0.129c-1.881,0.017-3.763,0.007-5.644,0.021c-0.519,0.004-1.042,0.026-1.556,0.096
				c-0.534,0.073-0.866,0.393-0.886,0.964c-0.011,0.32-0.009,0.64-0.008,0.961c0.054,19.614,0.11,39.228,0.158,58.842
				c0.001,0.598-0.015,1.208-0.133,1.79c-0.253,1.246-1.327,2.083-2.582,2.097c-1.293,0.015-2.416-0.865-2.676-2.143
				c-0.087-0.427-0.091-0.876-0.091-1.314C196.986,335.662,196.776,297.075,196.767,287.468z"/>
			<path d="M230.124,287.468c-0.001-0.638-0.053-1.28-0.137-1.913c-0.155-1.165-0.461-1.459-1.623-1.478
				c-1.801-0.028-3.603,0.013-5.404-0.016c-0.593-0.01-1.217-0.051-1.768-0.246c-1.863-0.657-2.398-3.06-0.957-4.397
				c0.439-0.407,1.099-0.6,1.685-0.815c0.285-0.104,0.634-0.041,0.954-0.041c6.885-0.016,13.77-0.032,20.655-0.043
				c0.48-0.001,0.964-0.003,1.438,0.059c1.358,0.178,2.368,1.262,2.432,2.568c0.063,1.301-0.841,2.46-2.204,2.758
				c-0.464,0.102-0.951,0.125-1.429,0.129c-1.881,0.017-3.763,0.007-5.644,0.021c-0.519,0.004-1.042,0.026-1.556,0.096
				c-0.534,0.073-0.866,0.393-0.886,0.964c-0.011,0.32-0.009,0.64-0.008,0.961c0.054,19.614,0.11,39.228,0.158,58.842
				c0.001,0.598-0.015,1.208-0.133,1.79c-0.253,1.246-1.327,2.083-2.582,2.097c-1.293,0.015-2.416-0.865-2.676-2.143
				c-0.087-0.427-0.091-0.876-0.091-1.314C230.343,335.662,230.133,297.075,230.124,287.468z"/>
		</g>
		<path d="M138.486,135.121c-0.405,0.642-0.612,0.967-0.816,1.295c-2.935,4.71-5.848,9.435-8.82,14.122
			c-0.786,1.24-1.687,2.424-2.657,3.526c-4.092,4.647-9.486,6.062-15.357,4.076c-3.723-1.259-6.785-3.52-9.413-6.385
			c-3.924-4.278-6.593-9.271-8.156-14.844c-1.654-5.894-2.541-11.904-2.379-18.039c0.101-3.791,0.569-7.539,1.506-11.221
			c1.568-6.162,4.774-11.247,9.838-15.148c4.574-3.523,9.524-4.075,14.849-2.045c1.84,0.701,3.26,1.988,4.626,3.332
			c3.264,3.212,5.125,7.173,5.931,11.627c0.384,2.12,0.575,4.279,0.749,6.429c0.066,0.813-0.073,1.674-0.279,2.471
			c-0.27,1.043-1.129,1.61-2.189,1.642c-1.211,0.036-1.895-0.576-2.069-1.791c-0.376-2.623-0.681-5.261-1.189-7.859
			c-0.562-2.875-1.649-5.584-3.625-7.796c-0.967-1.083-2.105-2.078-3.333-2.845c-1.656-1.035-3.106-0.788-4.318,0.737
			c-0.995,1.253-1.889,2.653-2.51,4.123c-1.809,4.278-2.802,8.783-3.276,13.4c-1.097,10.685,1.337,20.68,5.971,30.229
			c1.054,2.172,2.294,4.258,4.107,5.894c3.205,2.891,3.533,2.266,5.933-0.049c1.125-1.085,2.11-2.333,3.046-3.591
			c4.585-6.156,8.642-12.654,12.369-19.358c0.296-0.533,0.472-1.188,0.51-1.799c0.186-2.989,0.278-5.984,0.468-8.973
			c0.058-0.914-0.085-1.706-0.484-2.541c-2.103-4.401-2.775-9.014-1.534-13.764c1.771-6.775,8-12.389,16.518-11.377
			c3.226,0.383,6.29,1.249,8.987,3.037c5.282,3.5,9.064,8.216,11.029,14.302c1.384,4.288,1.979,8.706,2.098,13.19
			c0.071,2.689,0.013,5.381,0.013,8.298c1.499-0.103,2.881-0.199,4.408-0.304c-0.058-0.868-0.101-1.59-0.154-2.311
			c-0.502-6.852-0.204-13.645,1.492-20.336c1.145-4.519,2.921-8.786,5.651-12.558c3.432-4.742,7.99-7.818,13.983-8.285
			c6.849-0.534,12.375,3.895,13.505,10.677c0.641,3.847,0.026,7.559-1.329,11.132c-3.262,8.603-8.853,15.329-16.67,20.195
			c-0.5,0.311-1.01,0.607-1.514,0.913c-0.04,0.024-0.066,0.069-0.27,0.287c0.263,1.462,0.553,3.071,0.876,4.861
			c8.688-2.538,17.031-5.332,24.713-9.725c0-0.909,0.048-1.743-0.008-2.571c-0.354-5.218-0.197-10.421,0.699-15.57
			c1.037-5.963,2.938-11.638,6.694-16.488c2.912-3.76,6.634-6.401,11.431-7.241c6.569-1.15,12.205,2.517,13.097,10.17
			c0.278,2.388-0.152,4.699-0.982,6.94c-1.101,2.976-2.728,5.66-4.617,8.187c-3.161,4.228-6.76,8.053-10.802,11.447
			c-0.753,0.632-1.095,1.258-0.977,2.249c0.3,2.525,0.52,5.059,0.794,7.798c0.717-0.238,1.216-0.377,1.694-0.567
			c3.136-1.246,5.98-3.005,8.493-5.228c2.537-2.244,4.911-4.671,7.395-6.975c0.565-0.524,0.528-1.113,0.532-1.746
			c0.019-3.504,0.384-6.962,1.402-10.329c2.697-8.921,10.411-15.123,19.717-15.607c6.759-0.352,11.839,2.697,15.294,8.418
			c1.685,2.789,1.602,5.816,0.54,8.823c-1.101,3.117-3.126,5.544-5.804,7.428c-3.907,2.749-8.326,4.126-13.014,4.743
			c-1.064,0.14-2.135,0.226-3.403,0.358c0.413,2.041,0.671,4.037,1.229,5.945c2.265,7.748,5.155,15.257,9.126,22.304
			c0.909,1.612,2.136,3.051,3.273,4.526c0.377,0.489,0.929,0.841,1.576,1.409c0.881-1.405,1.817-2.616,2.456-3.968
			c2.202-4.659,4.331-9.354,6.421-14.064c0.856-1.927,1.535-3.933,2.31-5.897c0.295-0.749,0.343-1.485,0.263-2.298
			c-0.879-8.859,0.162-17.46,3.716-25.671c1.99-4.597,4.835-8.524,9.238-11.16c5.761-3.449,12.889-3.006,17.904,1.18
			c3.107,2.593,4.602,6.075,5.242,9.95c0.756,4.581-0.309,8.824-2.977,12.573c-3.906,5.489-9.101,9.159-15.782,10.534
			c-0.9,0.185-1.827,0.234-2.797,0.353c-0.07,2.092,0.363,4.056,0.74,6.019c1.25,6.509,4,12.407,7.502,17.972
			c0.803,1.276,1.876,2.388,2.879,3.528c0.382,0.434,0.886,0.783,1.385,1.088c1.593,0.973,2.456,0.905,3.533-0.594
			c0.993-1.383,1.887-2.877,2.579-4.431c2.096-4.702,3.163-9.697,3.846-14.774c0.347-2.578,0.534-5.177,0.846-7.761
			c0.197-1.63,1.08-2.557,2.547-2.843c1.581-0.308,2.629,0.461,2.667,2.074c0.029,1.225-0.058,2.456-0.151,3.68
			c-0.443,5.787-1.24,11.53-2.677,17.151c-0.64,2.503-1.556,4.983-2.694,7.302c-3.568,7.267-11.238,10.142-18.788,7.163
			c-5.114-2.018-9.056-5.444-11.844-10.18c-1.929-3.276-3.298-6.794-4.394-10.425c-0.149-0.492-0.322-0.977-0.574-1.739
			c-0.289,0.656-0.47,1.034-0.625,1.423c-1.665,4.199-3.261,8.427-5.022,12.585c-0.681,1.609-1.556,3.205-2.651,4.557
			c-3.391,4.187-8.333,5.095-13.089,2.564c-3.122-1.662-5.717-3.994-8.042-6.615c-4.934-5.56-8.353-12-10.615-19.039
			c-1.003-3.122-1.661-6.355-2.479-9.536c-0.071-0.275-0.172-0.542-0.328-1.028c-4.273,4.149-8.685,7.872-14.324,10.359
			c0.672,0.195,1.093,0.333,1.522,0.439c3.603,0.895,7.003,2.279,10.111,4.316c3.456,2.266,6.12,5.228,7.609,9.132
			c2.928,7.678-1.249,15.581-9.243,17.508c-4.051,0.976-7.92,0.416-11.532-1.625c-4.794-2.709-8.381-6.605-10.915-11.478
			c-2.485-4.78-4.193-9.837-5.29-15.102c-0.46-2.207-0.839-4.431-1.254-6.643c-5.652,2.369-11.302,4.738-17.108,7.171
			c0.374,0.119,0.631,0.205,0.89,0.284c2.298,0.693,4.634,1.28,6.883,2.107c2.088,0.767,3.912,2.044,5.496,3.629
			c4.691,4.697,4.91,11.482,0.533,16.46c-5.284,6.01-14.119,7.256-21.213,2.975c-3.607-2.176-6.374-5.208-8.695-8.675
			c-2.74-4.093-4.392-8.654-5.651-13.372c-0.53-1.984-0.951-3.996-1.457-6.144c-1.76,0.138-3.502,0.275-5.373,0.422
			c-0.271,1.595-0.516,3.183-0.814,4.76c-0.739,3.916-1.7,7.774-3.273,11.448c-0.54,1.26-1.147,2.507-1.861,3.675
			c-3.692,6.033-10.961,8.028-17.222,4.726c-3.537-1.865-6.122-4.716-8.101-8.144c-1.809-3.135-2.894-6.545-3.751-10.037
			C138.978,137.323,138.773,136.375,138.486,135.121z M168.606,127.262c0.068-0.361,0.134-0.548,0.135-0.735
			c0.005-2.449,0.046-4.898-0.012-7.346c-0.082-3.449-0.659-6.835-1.546-10.162c-1.085-4.071-2.675-7.904-5.517-11.105
			c-2.138-2.408-4.697-4.169-7.868-4.907c-2.417-0.563-4.834-0.579-6.931,0.94c-3.404,2.464-4.46,6-4.394,10.17
			c0.518-0.182,0.868-0.354,1.237-0.426c1.098-0.214,2.206-0.557,3.307-0.548c4.236,0.034,6.263,2.386,5.892,6.6
			c-0.293,3.325-0.496,6.658-0.785,9.983c-0.081,0.929,0.17,1.527,0.981,2.073C157.771,124.937,162.933,126.615,168.606,127.262z
			 M308.31,118.019c1.552,0.105,2.8-0.034,4.177-0.568c5.574-2.161,9.273-6.112,10.984-11.835c0.937-3.132,0.854-6.291-0.256-9.397
			c-0.575-1.609-1.488-2.968-2.829-4.041c-1.349-1.079-2.672-1.045-3.961,0.07c-1.247,1.08-2.167,2.39-2.91,3.845
			c-2.597,5.082-4.046,10.507-4.761,16.138C308.514,114.114,308.458,116.02,308.31,118.019z M193.282,121.505
			c0.357-0.157,0.502-0.196,0.618-0.276c5.082-3.493,9.092-7.922,11.693-13.547c1.542-3.334,2.454-6.823,2.356-10.537
			c-0.051-1.921-0.609-3.677-1.644-5.272c-1.51-2.327-3.398-2.471-5.284-0.444c-0.199,0.214-0.387,0.447-0.537,0.697
			c-0.704,1.179-1.455,2.335-2.076,3.556c-3.941,7.753-5.384,16.04-5.202,24.666C193.213,120.676,193.248,121.003,193.282,121.505z
			 M267.349,111.314c3.588,0.085,6.897-0.369,10.039-1.778c3.435-1.54,5.502-4.196,6.202-7.871c0.387-2.03,0.261-4.018-1.106-5.738
			c-0.964-1.213-2.155-2.135-3.56-2.784c-1.241-0.573-2.474-0.525-3.693,0.061c-1.494,0.717-2.71,1.78-3.643,3.135
			C268.533,100.776,267.386,105.764,267.349,111.314z M168.024,131.793c-1.905-0.254-3.713-0.417-5.488-0.756
			c-1.729-0.33-3.445-0.774-5.129-1.29c-1.691-0.518-3.336-1.187-5.178-1.854c0.2,1.45,0.342,2.661,0.538,3.862
			c0.87,5.341,2.749,10.314,5.532,14.947c0.626,1.042,1.269,2.088,2.281,2.813C163.524,147.297,167.54,137.754,168.024,131.793z
			 M234.116,111.508c0.981-0.935,1.99-1.842,2.938-2.809c3.005-3.069,5.635-6.411,7.322-10.408c0.947-2.243,1.497-4.567,1.245-7.023
			c-0.178-1.732-0.621-3.383-1.749-4.763c-0.791-0.967-1.352-1.069-2.183-0.156c-0.847,0.93-1.631,1.976-2.189,3.098
			c-2.082,4.183-3.674,8.558-4.658,13.132C234.223,105.453,233.842,108.367,234.116,111.508z M196.871,138.682
			c0.099,0.405,0.132,0.693,0.237,0.952c1.205,2.957,2.47,5.894,4.27,8.544c0.933,1.373,1.98,2.695,3.145,3.873
			c0.809,0.818,1.842,1.489,2.89,1.978c1.764,0.823,3.09,0.363,4.227-1.212c1.663-2.303,1.812-5.397,0.178-7.727
			c-0.746-1.063-1.708-2.052-2.764-2.807C205.459,139.713,201.288,138.979,196.871,138.682z M237.074,135.954
			c-0.021,0.128-0.065,0.224-0.044,0.304c0.074,0.284,0.163,0.565,0.26,0.842c1.563,4.425,3.748,8.539,6.429,12.371
			c0.944,1.349,2.205,2.489,3.396,3.648c0.477,0.465,1.124,0.793,1.746,1.062c0.806,0.349,1.31,0.2,1.759-0.551
			c0.372-0.623,0.68-1.317,0.851-2.02c0.661-2.715,0.287-5.325-1.38-7.569c-1.041-1.4-2.302-2.691-3.661-3.787
			c-2.631-2.122-5.777-3.29-8.958-4.335C237.353,135.88,237.201,135.941,237.074,135.954z"/>
	</g>
</g>
</svg>
